{
  "accessors": [
    {
      "bufferView": 2,
      "componentType": 5126,
      "count": 4129,
      "max": [
        106.24725341796875,
        108.38121795654297,
        150.63418579101562
      ],
      "min": [
        -428.87777709960938,
        -348.12582397460938,
        -185.802978515625
      ],
      "type": "VEC3"
    },
    {
      "bufferView": 2,
      "byteOffset": 49548,
      "componentType": 5126,
      "count": 4129,
      "max": [
        1,
        1,
        0.99919849634170532
      ],
      "min": [
        -0.99944990873336792,
        -1,
        -1
      ],
      "type": "VEC3"
    },
    {
      "bufferView": 1,
      "componentType": 5126,
      "count": 4129,
      "max": [
        0.99654215574264526,
        1.0024310350418091
      ],
      "min": [
        0.0048268632963299751,
        0.0014201379381120205
      ],
      "type": "VEC2"
    },
    {
      "bufferView": 0,
      "componentType": 5125,
      "count": 7497,
      "max": [
        4128
      ],
      "min": [
        0
      ],
      "type": "SCALAR"
    }
  ],
  "asset": {
    "extras": {
      "author": "TheMadraver (https://sketchfab.com/TheMadraver)",
      "license": "CC-BY-NC-4.0 (http://creativecommons.org/licenses/by-nc/4.0/)",
      "source": "https://sketchfab.com/3d-models/fantasy-tavern-c96d02bfe98f4b4494c9ed1d270bf5d8",
      "title": "Fantasy Tavern"
    },
    "generator": "Sketchfab-7.39.0",
    "version": "2.0"
  },
  "bufferViews": [
    {
      "buffer": 0,
      "byteLength": 29988,
      "byteOffset": 0,
      "name": "floatBufferViews",
      "target": 34963
    },
    {
      "buffer": 0,
      "byteLength": 33032,
      "byteOffset": 29988,
      "byteStride": 8,
      "name": "floatBufferViews",
      "target": 34962
    },
    {
      "buffer": 0,
      "byteLength": 99096,
      "byteOffset": 63020,
      "byteStride": 12,
      "name": "floatBufferViews",
      "target": 34962
    }
  ],
  "buffers": [
    {
      "byteLength": 162116,
      "uri": "scene.bin"
    }
  ],
  "images": [
    {
      "uri": "textures/Fantasy_Tavern_MAT_baseColor.png"
    }
  ],
  "materials": [
    {
      "alphaMode": "BLEND",
      "doubleSided": true,
      "emissiveFactor": [
        0,
        0,
        0
      ],
      "name": "Fantasy_Tavern_MAT",
      "pbrMetallicRoughness": {
        "baseColorFactor": [
          1,
          1,
          1,
          1
        ],
        "baseColorTexture": {
          "index": 0,
          "texCoord": 0
        },
        "metallicFactor": 0,
        "roughnessFactor": 0.59999999999999998
      }
    }
  ],
  "meshes": [
    {
      "name": "Object008_Fantasy_Tavern_MAT_0",
      "primitives": [
        {
          "attributes": {
            "NORMAL": 1,
            "POSITION": 0,
            "TEXCOORD_0": 2
          },
          "indices": 3,
          "material": 0,
          "mode": 4
        }
      ]
    }
  ],
  "nodes": [
    {
      "children": [
        1
      ],
      "name": "RootNode (gltf orientation matrix)",
      "rotation": [
        -0.70710678118654746,
        -0,
        -0,
        0.70710678118654757
      ]
    },
    {
      "children": [
        2
      ],
      "matrix": [
        -1,
        0,
        0,
        0,
        0,
        1,
        0,
        0,
        0,
        0,
        -1,
        0,
        -463.15225219726562,
        99.779579162597656,
        -584.2880859375,
        1
      ],
      "name": "RootNode (model correction matrix)"
    },
    {
      "children": [
        3
      ],
      "matrix": [
        1,
        0,
        0,
        0,
        0,
        -1,
        0,
        0,
        0,
        0,
        -1,
        0,
        0,
        0,
        0,
        1
      ],
      "name": "2c327805b26b47b8a70ecd0aec13fde7.fbx"
    },
    {
      "children": [
        4
      ],
      "name": "RootNode"
    },
    {
      "children": [
        5
      ],
      "matrix": [
        -2.1729531682162024,
        1.3087087052896897,
        0.13098037887994721,
        0,
        -1.3117036698803346,
        -2.1748810813676576,
        -0.030423190905853544,
        0,
        0.096477030297437399,
        -0.093667565471810349,
        2.5364381277722807,
        0,
        -263.89706420898438,
        178.50265502929688,
        -95.357398986816406,
        1
      ],
      "name": "Object008"
    },
    {
      "children": [
        6
      ],
      "matrix": [
        1,
        0,
        -0,
        0,
        0,
        1,
        0,
        0,
        0,
        0,
        1,
        0,
        152.19277954101599,
        97.191818237304702,
        170.42550659179699,
        1
      ],
      "name": ""
    },
    {
      "mesh": 0,
      "name": "Object008_Fantasy_Tavern_MAT_0"
    }
  ],
  "samplers": [
    {
      "magFilter": 9729,
      "minFilter": 9987,
      "wrapS": 10497,
      "wrapT": 10497
    }
  ],
  "scene": 0,
  "scenes": [
    {
      "name": "OSG_Scene",
      "nodes": [
        0
      ]
    }
  ],
  "textures": [
    {
      "sampler": 0,
      "source": 0
    }
  ]
}

